<?xml version="1.0" encoding="UTF-8"?>

<svg xmlns="http://www.w3.org/2000/svg" viewBox="0 0 512 512" role="img" aria-label="CernoFlow">
  <title>CernoFlow</title>
  <desc>CernoFlow iOS-style app icon — primary blue squircle tile with paper Syne C.</desc>
  <rect width="512" height="512" rx="115" ry="115" fill="#1A4DC6"></rect>
  
  <g transform="translate(97.3 97.3) scale(3.174)">
    <path d="M74.350 59.700L85.450 59.700Q84.450 67.200 80.150 72.550Q75.850 77.900 68.700 80.750Q61.550 83.600 52.050 83.600L52.050 83.600Q43.850 83.600 37 81.400Q30.150 79.200 25.100 74.950Q20.050 70.700 17.300 64.450Q14.550 58.200 14.550 50.100L14.550 50.100Q14.550 41.900 17.300 35.700Q20.050 29.500 25.100 25.150Q30.150 20.800 37 18.600Q43.850 16.400 52.050 16.400L52.050 16.400Q61.650 16.400 68.800 19.300Q75.950 22.200 80.250 27.600Q84.550 33 85.450 40.600L85.450 40.600L74.450 40.600Q73.050 36.100 70.050 32.950Q67.050 29.800 62.500 28.100Q57.950 26.400 52.050 26.400L52.050 26.400Q44.650 26.400 38.750 29.150Q32.850 31.900 29.500 37.150Q26.150 42.400 26.150 50.100L26.150 50.100Q26.150 57.700 29.500 62.950Q32.850 68.200 38.750 70.900Q44.650 73.600 52.050 73.600L52.050 73.600Q57.950 73.600 62.450 71.950Q66.950 70.300 69.950 67.150Q72.950 64 74.350 59.700L74.350 59.700Z" fill="#F6F4EE"></path>
  </g>
</svg>